<svg width="1370" height="710" viewBox="0 0 1370 710" fill="none" xmlns="http://www.w3.org/2000/svg">
<path d="M-74.9932 0H1370V480H-74.9932V0Z" fill="url(#paint0_linear_0_182)"/>
<mask id="mask0_0_182" style="mask-type:alpha" maskUnits="userSpaceOnUse" x="-77" y="0" width="1445" height="710">
<path d="M-77 0H1367.99V710H-77V0Z" fill="#DD2679"/>
</mask>
<g mask="url(#mask0_0_182)">
<path d="M-77 0H1367.99V362.011L-77 753.339V0Z" fill="url(#paint1_radial_0_182)"/>
<g filter="url(#filter0_f_0_182)">
<path d="M-229.527 1010.83L1390.07 735.495V234.544C1297.09 292.329 1070.2 422.687 906.44 481.833C701.741 555.765 395.712 408.592 245 378C124.43 353.526 -123.054 449.541 -229.527 499.678V1010.83Z" fill="url(#paint2_linear_0_182)"/>
</g>
</g>
<defs>
<filter id="filter0_f_0_182" x="-309.527" y="154.544" width="1779.6" height="936.284" filterUnits="userSpaceOnUse" color-interpolation-filters="sRGB">
<feFlood flood-opacity="0" result="BackgroundImageFix"/>
<feBlend mode="normal" in="SourceGraphic" in2="BackgroundImageFix" result="shape"/>
<feGaussianBlur stdDeviation="40" result="effect1_foregroundBlur_0_182"/>
</filter>
<linearGradient id="paint0_linear_0_182" x1="1370" y1="240.431" x2="146.031" y2="559.831" gradientUnits="userSpaceOnUse">
<stop stop-color="#E73635"/>
<stop offset="1" stop-color="#6AD5FF"/>
</linearGradient>
<radialGradient id="paint1_radial_0_182" cx="0" cy="0" r="1" gradientUnits="userSpaceOnUse" gradientTransform="translate(1344.91 149.776) rotate(-173.858) scale(1399.84 4313.8)">
<stop stop-color="#8FB3FF"/>
<stop offset="0.277176" stop-color="#9D6BE8"/>
<stop offset="0.542906" stop-color="#DE2778"/>
<stop offset="1" stop-color="#B03DE2"/>
<stop offset="1.0001" stop-color="#B03DE2"/>
</radialGradient>
<linearGradient id="paint2_linear_0_182" x1="1336.08" y1="466.537" x2="-300.162" y2="783.358" gradientUnits="userSpaceOnUse">
<stop offset="0.0129279" stop-color="#E37777"/>
<stop offset="0.380614" stop-color="#F2554C"/>
<stop offset="0.61473" stop-color="#FEC458"/>
<stop offset="0.842802" stop-color="#FEC957"/>
<stop offset="1" stop-color="#DB788D"/>
</linearGradient>
</defs>
</svg>
