<svg id="SvgjsSvg1054" width="288" height="288" xmlns="http://www.w3.org/2000/svg" version="1.1" xmlns:xlink="http://www.w3.org/1999/xlink" xmlns:svgjs="http://svgjs.com/svgjs"><defs id="SvgjsDefs1055"></defs><g id="SvgjsG1056"><svg xmlns="http://www.w3.org/2000/svg" data-name="Layer 1" viewBox="0 0 64 64" width="288" height="288"><path d="M56.82 19.4H51.3a3.05 3.05 0 0 1-1.44-.4l-5.26-2.9a2.91 2.91 0 0 0-1-.21l-5.6-.14a2.79 2.79 0 0 1-2.68-2.49 2.36 2.36 0 0 1 0-.7.64.64 0 0 0 0-.07 2.83 2.83 0 0 1 2.75-2.28h5.37a.5.5 0 0 1 0 1H38.1a1.81 1.81 0 0 0-.74.15 1.84 1.84 0 0 0-1 1.36.3.3 0 0 1 0 .1 1.93 1.93 0 0 0 0 .34 1.77 1.77 0 0 0 1.64 1.6l5.63.18a3.86 3.86 0 0 1 1.38.3l5.31 2.92a2 2 0 0 0 1 .26h5.52a.49.49 0 1 1 0 1Z" fill="#ffbf66" class="color000 svgShape"></path><path d="M24.5 15.38a2.72 2.72 0 0 1-2.27-1.21 2.81 2.81 0 0 1-.32-2.45 2.56 2.56 0 0 1 1.35-1.48L39.81 2.9A5.6 5.6 0 0 1 43 2.5l11.4 3.74a2.24 2.24 0 0 0 .63.1h1.82a.49.49 0 1 1 0 1H55a2.88 2.88 0 0 1-.93-.15L42.74 3.45a4.65 4.65 0 0 0-2.53.35l-16.55 7.34a1.57 1.57 0 0 0-.82.91 1.82 1.82 0 0 0 .21 1.58 1.74 1.74 0 0 0 1.8.73l10.85-2.18a.48.48 0 0 1 .45.83.51.51 0 0 1-.24.13L25 15.33a3.29 3.29 0 0 1-.5.05Z" fill="#ffbf66" class="color000 svgShape"></path><path d="M63.51 20.61h-6.68a.49.49 0 0 1-.5-.49V5.43a.49.49 0 0 1 .5-.49h5.68a.5.5 0 0 1 .49.46l1 14.68a.5.5 0 0 1-.13.37.52.52 0 0 1-.36.16zm-6.19-1H63l-.93-13.7h-4.75zM25.9 53.78h-5.37a.49.49 0 1 1 0-1h5.37a1.85 1.85 0 0 0 .74-.15 1.82 1.82 0 0 0 1.05-1.37.29.29 0 0 1 0-.09 1 1 0 0 0 0-.34A1.77 1.77 0 0 0 26 49.24l-5.63-.18a3.86 3.86 0 0 1-1.38-.3l-5.31-2.93a2.05 2.05 0 0 0-1-.25h-5.5a.49.49 0 1 1 0-1h5.52a3.05 3.05 0 0 1 1.44.37l5.26 2.9a2.91 2.91 0 0 0 1 .21l5.64.17a2.79 2.79 0 0 1 2.68 2.49 2.36 2.36 0 0 1 0 .7v.06a2.76 2.76 0 0 1-1.61 2 2.71 2.71 0 0 1-1.21.3zm2.28-2.43z" fill="#ffbf66" class="color000 svgShape"></path><path d="M21.93 61.57a5.46 5.46 0 0 1-.9-.07l-11.4-3.74a2.24 2.24 0 0 0-.63-.1H7.18a.49.49 0 1 1 0-1H9a2.88 2.88 0 0 1 .93.15l11.33 3.72a4.65 4.65 0 0 0 2.53-.35l16.55-7.34a1.57 1.57 0 0 0 .82-.91 1.82 1.82 0 0 0-.16-1.56 1.74 1.74 0 0 0-1.8-.73l-10.89 2.18a.49.49 0 0 1-.48-.81.53.53 0 0 1 .26-.15L39 48.68a2.7 2.7 0 0 1 2.81 1.15 2.81 2.81 0 0 1 .32 2.45 2.56 2.56 0 0 1-1.35 1.48L24.19 61.1a5.65 5.65 0 0 1-2.26.47Z" fill="#ffbf66" class="color000 svgShape"></path><path d="M7.17 59.06H1.5a.5.5 0 0 1-.5-.46L0 43.92a.5.5 0 0 1 .13-.37.52.52 0 0 1 .36-.16h6.68a.49.49 0 0 1 .5.49v14.69a.49.49 0 0 1-.5.49zM2 58.08h4.68v-13.7H1zm30-23a3.26 3.26 0 0 1-1-.17 3.11 3.11 0 0 1-1.76-1.58 3.08 3.08 0 0 1 1.45-4.11 3.08 3.08 0 0 1 4.11 1.45 3.08 3.08 0 0 1-1.45 4.11 3.08 3.08 0 0 1-1.35.3zm-1.89-2.17A2.09 2.09 0 0 0 31.3 34a2.11 2.11 0 1 0-1.19-1.07zM32 26.14a.49.49 0 0 1-.49-.5v-6.73a.49.49 0 0 1 1 0v6.73a.49.49 0 0 1-.51.5zM27.51 28a.47.47 0 0 1-.35-.15l-4.76-4.76a.49.49 0 1 1 .69-.69l4.76 4.76a.47.47 0 0 1 0 .69.46.46 0 0 1-.34.15zm-1.87 4.49h-6.73a.49.49 0 0 1 0-1h6.73a.49.49 0 1 1 0 1zm-2.89 9.26a.5.5 0 0 1-.35-.84l4.76-4.76a.49.49 0 0 1 .69.69l-4.76 4.76a.46.46 0 0 1-.34.15zM32 45.58a.49.49 0 0 1-.49-.49v-6.73a.49.49 0 1 1 1 0v6.73a.49.49 0 0 1-.51.49zm9.26-3.83a.47.47 0 0 1-.35-.15l-4.76-4.76a.49.49 0 0 1 .69-.69l4.76 4.76a.47.47 0 0 1 0 .69.46.46 0 0 1-.34.15zm3.83-9.26h-6.73a.49.49 0 1 1 0-1h6.73a.49.49 0 1 1 0 1zM36.49 28a.46.46 0 0 1-.34-.15.47.47 0 0 1 0-.69l4.76-4.76a.49.49 0 0 1 .69.69l-4.76 4.76a.47.47 0 0 1-.35.15z" fill="#ffbf66" class="color000 svgShape"></path></svg></g></svg>